<?xml version="1.0" standalone="no"?>
<!DOCTYPE svg PUBLIC "-//W3C//DTD SVG 20010904//EN"
 "http://www.w3.org/TR/2001/REC-SVG-20010904/DTD/svg10.dtd">
<svg version="1.0" xmlns="http://www.w3.org/2000/svg"
 width="260.000000pt" height="260.000000pt" viewBox="0 0 260.000000 260.000000"
 preserveAspectRatio="xMidYMid meet">
<metadata>
Created by potrace 1.11, written by Peter Selinger 2001-2013
</metadata>
<g transform="translate(0.000000,260.000000) scale(0.100000,-0.100000)"
fill="#000000" stroke="none">
<path d="M1252 2513 c-27 -48 -100 -176 -162 -283 -62 -107 -120 -209 -130
-225 -9 -17 -49 -85 -88 -153 -39 -67 -70 -122 -69 -123 1 -1 228 -2 504 -3
498 -1 501 -1 491 19 -6 11 -87 153 -181 315 -256 444 -309 535 -312 538 -1 1
-25 -37 -53 -85z"/>
<path d="M1041 2459 c-34 -21 -64 -39 -66 -39 -1 0 -58 -32 -126 -72 -68 -39
-140 -80 -159 -91 -117 -65 -506 -290 -513 -296 -4 -4 106 -55 245 -113 l253
-106 22 27 c12 14 22 29 23 33 0 3 19 39 43 80 24 40 55 93 69 118 21 37 149
259 264 458 14 23 21 42 17 41 -4 0 -37 -18 -72 -40z"/>
<path d="M1492 2494 c3 -5 92 -160 198 -344 105 -184 203 -352 216 -372 l23
-37 53 26 c45 22 160 75 381 176 26 12 47 24 47 27 0 3 -176 107 -391 230
-466 268 -533 305 -527 294z"/>
<path d="M2419 1851 c-41 -20 -156 -74 -256 -120 l-181 -83 99 -157 c55 -86
170 -269 257 -407 l157 -251 3 263 c1 145 1 383 0 527 l-3 264 -76 -36z"/>
<path d="M109 1782 c-4 -547 -3 -942 2 -942 6 0 152 225 194 297 6 10 23 38
39 63 176 277 277 442 273 446 -4 5 -366 158 -459 195 l-48 19 -1 -78z"/>
<path d="M808 1601 c3 -9 89 -167 190 -351 101 -184 211 -385 245 -447 l61
-112 56 102 c31 56 71 129 89 162 18 33 52 94 74 135 22 41 93 170 157 286 64
116 119 217 122 226 5 13 -53 15 -497 15 -457 0 -503 -2 -497 -16z m412 -76
c31 -11 38 -20 64 -89 16 -42 32 -73 36 -69 19 23 57 131 59 171 1 16 11 15
76 -9 49 -18 55 -23 49 -42 -4 -12 -7 -35 -6 -52 0 -16 0 -69 1 -118 1 -64 4
-86 14 -85 13 3 12 -18 -4 -60 -8 -21 -14 -24 -42 -19 -17 3 -44 10 -58 15
-26 10 -27 13 -24 81 1 39 -1 71 -4 71 -9 0 -32 -63 -38 -104 -7 -43 -17 -51
-50 -37 -23 9 -35 27 -58 89 l-30 77 -3 -50 c-2 -34 1 -53 11 -60 11 -8 12
-16 2 -44 -14 -44 -26 -47 -80 -27 -42 16 -43 18 -34 49 4 18 11 65 13 106 3
41 9 90 12 108 6 29 4 33 -16 33 -22 0 -22 5 1 68 10 25 28 25 109 -3z"/>
<path d="M648 1479 c-334 -526 -494 -785 -489 -791 3 -4 71 -9 151 -12 323
-14 408 -17 470 -21 36 -2 147 -7 248 -10 l183 -7 -19 33 c-26 48 -73 132
-118 214 -21 39 -82 151 -137 250 -55 99 -119 216 -143 261 -24 45 -55 101
-68 124 l-24 43 -54 -84z m158 -278 c7 -1 2 -29 -14 -78 -13 -43 -26 -79 -27
-81 -2 -2 -15 4 -29 13 -20 14 -26 14 -27 4 -6 -171 -6 -168 22 -174 l27 -6
-16 -42 c-9 -23 -17 -44 -18 -45 -1 -2 -37 4 -79 13 l-77 17 8 37 c13 63 13
231 0 232 -34 2 -56 6 -60 10 -3 2 4 23 14 46 18 40 20 42 57 38 100 -9 153
-8 152 3 -3 18 3 22 29 18 15 -2 32 -5 38 -5z"/>
<path d="M1886 1529 c-8 -19 -120 -225 -249 -459 -148 -268 -231 -428 -224
-432 6 -4 14 -5 17 -3 3 1 73 6 155 9 326 15 363 16 460 21 55 2 170 7 255 11
85 3 156 7 157 8 3 3 -533 856 -546 869 -6 6 -15 -2 -25 -24z m102 -360 c30
-10 33 -14 27 -38 -3 -14 -13 -31 -21 -37 -21 -17 -21 -214 1 -214 18 0 18 -2
3 -51 l-11 -39 -45 6 c-25 3 -61 12 -81 19 -31 11 -36 16 -33 41 2 16 9 32 17
36 9 6 13 38 14 113 1 90 0 104 -14 99 -18 -7 -19 10 -4 55 11 32 12 33 63 27
28 -4 66 -11 84 -17z"/>
<path d="M280 555 c7 -8 16 -15 19 -15 4 0 63 -32 132 -71 192 -110 803 -461
812 -466 4 -2 7 115 7 261 l0 266 -22 -2 c-21 -1 -178 5 -413 17 -49 3 -153 7
-230 10 -77 3 -180 8 -229 10 -77 4 -87 3 -76 -10z"/>
<path d="M2187 563 c-1 0 -76 -4 -167 -8 -91 -4 -196 -8 -235 -10 -71 -4 -389
-17 -412 -18 -10 0 -13 -60 -13 -264 l0 -264 48 27 c26 15 52 31 57 34 6 4 30
19 55 32 25 14 135 77 245 140 110 63 220 126 245 140 155 88 330 190 330 193
0 4 -150 2 -153 -2z"/>
</g>
</svg>
